<?xml version="1.0" encoding="utf-8"?>
<!-- Generator: Adobe Illustrator 17.1.0, SVG Export Plug-In . SVG Version: 6.00 Build 0)  -->
<!DOCTYPE svg PUBLIC "-//W3C//DTD SVG 1.1//EN" "http://www.w3.org/Graphics/SVG/1.1/DTD/svg11.dtd">
<svg version="1.1" id="Layer_1" xmlns="http://www.w3.org/2000/svg" xmlns:xlink="http://www.w3.org/1999/xlink" x="0px" y="0px"
	 viewBox="0 0 1000 1000" enable-background="new 0 0 1000 1000" xml:space="preserve">
<g>
	<g>
		<path d="M193,528.4c4.7,46.2,19.3,91.9,38.5,134c9.3,20.5,20.5,40.2,34.9,57.5c16.9,20.1,38.6,37.3,60.8,51.1
			c23,14.4,48.7,25,75.1,31.1c28.4,6.6,57.3,11.8,86.2,15.4c29.5,3.7,59.2,4.5,88.6-0.1c27.9-4.4,55.3-15.3,80.7-27.4
			c100.3-48.1,174.6-146.7,195.8-255.8c5.6-29.1,6.5-58,2.6-87.3c-4-29.4-13.5-57.6-25.2-84.7c-11.6-26.7-26.1-52.1-42-76.4
			c-12.4-19-26-36.9-42.6-52.5c-61.2-57.7-148.6-79.5-230.9-72.2c-42.7,3.8-84.2,15-123,33.1c-38.4,18-72.3,43.6-100.7,74.9
			c-36.2,39.9-66.3,85.2-83.6,136.5c-9.3,27.6-14.5,56.7-16.1,85.7c-0.9,16.1,0,32.2,2.2,48.2c2,14.3,2.5,29,6.7,43
			c1,3.2,2.3,6.2,3.6,9.3c2.7,6.3,11.8,7.6,17.1,4.5c6.4-3.8,7.2-10.8,4.5-17.1c-5.4-12.6-5.2-27.7-7-41.1
			c-2.1-14.9-2.8-29.8-2.2-44.9c1.2-28,6.8-55.9,15.8-82.4c16.6-48.9,47.1-92.2,82.2-130c7-7.6,14.4-14.8,22.2-21.5
			c8.3-7.2,13.3-11,22.3-17.3c16.8-11.6,34.8-21.5,53.4-29.7c3.6-1.6,6.7-2.9,11.9-4.8c5-1.9,10.1-3.7,15.2-5.4
			c9.8-3.3,19.8-6,29.9-8.4c21.3-5,37.9-7.3,59.3-8.4c10.3-0.5,20.6-0.6,30.9-0.2c4.9,0.2,9.8,0.5,14.7,0.9c2.4,0.2,4.9,0.5,7.3,0.7
			c1.2,0.1,2.4,0.3,3.7,0.4c0.4,0.1,5.2,0.7,2.7,0.3c20,2.8,39.8,7.6,58.9,14.4c10.2,3.6,15.8,6,25.8,11c9,4.4,17.6,9.4,26,14.9
			c9.3,6.1,14.5,10.1,22.5,16.9c7.7,6.6,15,13.8,21.8,21.4c7.6,8.5,11.9,14.4,18.4,23.9c8.1,11.9,15.7,24.1,23,36.5
			c14.5,24.8,26.9,50.8,35.9,78.1c8.9,27.1,13.8,55.2,13.3,83.7c-0.5,26.7-6.3,53-14.5,78.6c-16.4,50.8-45.2,98.2-82.6,136.3
			c-38.2,39-86.4,67.3-138.4,83.4c-54.9,17-113.4,6.9-168.4-4.3c-26.2-5.3-51.2-11.9-74.9-24.2c-23.5-12.3-44.5-28.6-63.1-47.4
			c-11.2-11.3-18.6-22.2-26.9-37.2c-8.9-15.8-15.7-31.4-21.9-47.8c-6.5-17.1-12-34.6-16.5-52.3c-2.1-8.1-3.9-16.2-5.5-24.4
			c-0.8-3.9-1.4-7.9-2-11.9c-0.1-0.8-0.2-1.5-0.3-2.3c-0.5-3.7,0.3,2.5-0.1-1.1c-0.2-1.8-0.4-3.6-0.6-5.3
			c-0.7-6.8-5.2-12.5-12.5-12.5C199.3,515.9,192.4,521.6,193,528.4L193,528.4z"/>
	</g>
</g>
<path d="M503.2,443.7c-8.8-5.6-19.3-7.5-29.5-8.8c-10.4-1.3-20.9-1.5-31.4-1c-20.1,0.8-38.8,5.2-57.8,11.6
	c-12.2,4.1-24.3,9.3-34.9,16.8c-11.3,7.9-20.1,18.2-27.1,30.1c-13.4,22.8-18,50.3-15.8,76.4c2.2,26.2,10.5,52.3,24.3,74.7
	c12.7,20.6,31.1,36.1,53.8,44.5c23.2,8.6,50.5,8.3,74.9,6.5c27.1-2,54-8.1,78.2-20.9c20.6-10.9,35.1-27.2,43.3-48.9
	c7.5-19.7,8.3-42.1,6-62.8c-2.5-21.8-8.4-42.9-18.1-62.6c-11.1-22.6-29.2-39.5-52-50.1c-16.7-7.7-34.4-13.8-52.8-15.2
	c-14.2-1-16.9,21.2-3.3,24.6c10.9,2.7,21.8,5.3,32.7,8c15.7,3.8,22.3-20.3,6.6-24.1c-10.9-2.7-21.8-5.3-32.7-8
	c-1.1,8.2-2.2,16.4-3.3,24.6c10.8,0.8,21.9,4.8,33.1,8.9c10.5,3.9,21.8,9.9,30.3,17.2c8.2,7,13.9,15.3,18.8,24.8
	c4.6,8.8,6.9,15.1,10.1,25.6c1.4,4.8,2.6,9.7,3.6,14.6c0.5,2.5,1,5,1.4,7.5c0.6,3.9,0.5,2.8,0.9,6.8c1.1,10.4,1.1,20.9,0,31.3
	c0,0.2-0.6,4.2-0.2,1.5c-0.2,1.2-0.4,2.4-0.6,3.6c-0.4,2.4-0.9,4.7-1.5,7c-0.6,2.3-1.2,4.6-2,6.8c-0.4,1.1-0.8,2.2-1.2,3.3
	c-0.3,0.7-0.5,1.5-0.8,2.2c0.5-1.2,0.5-1.1-0.1,0.2c-4.3,9.8-7.8,14.6-15.2,21.3c-0.9,0.8-1.7,1.5-2.6,2.2c2.1-1.7-1.6,1.1-1.5,1
	c-2.5,1.7-5,3.3-7.6,4.9c-5.3,3.1-11,5.9-16.3,8c-12.1,4.8-24.9,7.9-37.8,10c-22.5,3.7-50.4,4.2-72-0.5
	c-20.6-4.5-36.9-16.1-48.3-32.9c-13.4-19.6-21.4-44.2-23.3-67.1c-1.8-22,1.7-43.2,12.6-62.3c11.2-19.7,29.1-29.4,49.9-36.3
	c9-3,18.3-5.9,27.6-7.7c1.3-0.3,2.6-0.5,3.9-0.7c3-0.5-2.9,0.4,0.3,0c1-0.1,2-0.2,3-0.3c4.5-0.5,9-0.8,13.5-1
	c9.7-0.5,19.4-0.3,29,0.7c1.5,0.2,1.6,0.2,0.3,0c1.2,0.2,2.4,0.4,3.5,0.6c2.2,0.4,4.5,0.9,6.7,1.5c2,0.5,4,1.2,6,1.9
	c-2.8-1.1,2,1.2,2.8,1.7C504.3,473.9,516.8,452.2,503.2,443.7z"/>
</svg>
